<svg width="72" height="48" viewBox="0 0 72 48" fill="none" xmlns="http://www.w3.org/2000/svg">
<path d="M36 0V24.1038L18.1341 47.9218C17.9627 48.0101 15.6914 48.0205 15.3954 47.9686C15.224 47.9374 15.2746 47.7347 15.1967 47.7139C14.9357 47.6308 14.5578 47.7919 14.2968 47.7087C8.34406 45.7962 3.80551 40.8278 1.33171 33.235C1.12134 32.5854 0.455166 30.465 0.400625 29.8465C0.338293 29.1865 0.32271 27.9496 0.217524 27.3675C0.198046 27.2688 0.0461121 27.3364 0.0266334 27.1025C-0.0629689 26.1826 0.108444 24.9925 0.0344251 24.0414H17.9705V0.311821C17.9705 0.311821 18.1886 0 18.2042 0H36Z" fill="#FDFDFD"/>
<path d="M36 23.8964L53.8213 0.0800986C54.5675 0.0905467 55.4621 -0.0661719 56.1926 0.0330844C57.0559 0.153237 57.845 0.57638 58.5482 0.790565C63.6266 2.3212 67.8612 7.16387 70.2012 13.464C70.709 14.8327 71.0333 16.0969 71.338 17.6067C71.7638 19.7172 72.1036 21.7545 71.9708 23.9591H53.9854V48H36V23.8964Z" fill="#FDFDFD"/>
</svg>
