<svg width="47" height="47" viewBox="0 0 47 47" fill="none" xmlns="http://www.w3.org/2000/svg">
<path d="M31.3335 15.6665C34.4498 15.6665 37.4385 16.9044 39.642 19.108C41.8456 21.3116 43.0835 24.3002 43.0835 27.4165V41.1248H35.2502V27.4165C35.2502 26.3777 34.8375 25.3815 34.103 24.647C33.3685 23.9125 32.3723 23.4998 31.3335 23.4998C30.2947 23.4998 29.2985 23.9125 28.564 24.647C27.8295 25.3815 27.4168 26.3777 27.4168 27.4165V41.1248H19.5835V27.4165C19.5835 24.3002 20.8214 21.3116 23.025 19.108C25.2285 16.9044 28.2172 15.6665 31.3335 15.6665Z" stroke="#EEEEEE" stroke-width="2" stroke-linecap="round" stroke-linejoin="round"/>
<path d="M11.7498 17.625H3.9165V41.125H11.7498V17.625Z" stroke="#EEEEEE" stroke-width="2" stroke-linecap="round" stroke-linejoin="round"/>
<path d="M7.83317 11.7498C9.99629 11.7498 11.7498 9.99629 11.7498 7.83317C11.7498 5.67006 9.99629 3.9165 7.83317 3.9165C5.67006 3.9165 3.9165 5.67006 3.9165 7.83317C3.9165 9.99629 5.67006 11.7498 7.83317 11.7498Z" stroke="#EEEEEE" stroke-width="2" stroke-linecap="round" stroke-linejoin="round"/>
</svg>
